<?xml version="1.0" encoding="UTF-8" standalone="no"?>
<svg
   xmlns:dc="http://purl.org/dc/elements/1.1/"
   xmlns:cc="http://creativecommons.org/ns#"
   xmlns:rdf="http://www.w3.org/1999/02/22-rdf-syntax-ns#"
   xmlns:svg="http://www.w3.org/2000/svg"
   xmlns="http://www.w3.org/2000/svg"
   xmlns:sodipodi="http://sodipodi.sourceforge.net/DTD/sodipodi-0.dtd"
   xmlns:inkscape="http://www.inkscape.org/namespaces/inkscape"
   sodipodi:docname="avatar.svg"
   inkscape:version="1.0 (4035a4fb49, 2020-05-01)"
   id="svg2125"
   version="1.1"
   viewBox="0 0 210 297"
   height="297mm"
   width="210mm">
  <defs
     id="defs2119" />
  <sodipodi:namedview
     inkscape:window-maximized="0"
     inkscape:window-y="0"
     inkscape:window-x="192"
     inkscape:window-height="1030"
     inkscape:window-width="1424"
     showgrid="false"
     inkscape:document-rotation="0"
     inkscape:current-layer="layer1"
     inkscape:document-units="mm"
     inkscape:cy="560"
     inkscape:cx="400"
     inkscape:zoom="0.35"
     inkscape:pageshadow="2"
     inkscape:pageopacity="0.0"
     borderopacity="1.0"
     bordercolor="#666666"
     pagecolor="#ffffff"
     id="base" />
  <metadata
     id="metadata2122">
    <rdf:RDF>
      <cc:Work
         rdf:about="">
        <dc:format>image/svg+xml</dc:format>
        <dc:type
           rdf:resource="http://purl.org/dc/dcmitype/StillImage" />
        <dc:title />
      </cc:Work>
    </rdf:RDF>
  </metadata>
  <g
     id="layer1"
     inkscape:groupmode="layer"
     inkscape:label="Layer 1">
    <path
       style="font-variation-settings:normal;opacity:1;vector-effect:none;fill:#ffffff;fill-opacity:1;stroke-width:0.264583;stroke-linecap:butt;stroke-linejoin:miter;stroke-miterlimit:4;stroke-dasharray:none;stroke-dashoffset:0;stroke-opacity:1;stop-color:#000000;stop-opacity:1"
       d="m 89.256469,193.21364 c -26.237045,-7.5525 -43.161878,-33.0877 -39.033477,-58.89137 3.262268,-20.38985 19.640411,-38.075777 40.163635,-43.370577 27.001263,-6.9661 55.833103,8.893011 64.484033,35.469707 3.84671,11.8175 3.57721,22.37468 -0.87359,34.22234 -5.88853,15.67487 -20.44716,28.52099 -37.23019,32.85083 -7.8051,2.01365 -19.970762,1.88942 -27.510411,-0.28075 z m 25.976621,-3.62178 c 3.63793,-0.83482 8.83652,-2.72361 11.55245,-4.19731 4.13498,-2.24377 4.98748,-3.18995 5.24217,-5.818 0.461,-4.75635 -1.47806,-10.62517 -5.06379,-15.32637 -2.87908,-3.77469 -8.8099,-8.69435 -10.48136,-8.69435 -0.34584,0 -1.41757,1.33553 -2.38179,2.96788 -4.30743,7.29187 -13.4138,7.77456 -19.692194,1.04379 -2.058117,-2.20643 -4.107826,-4.01167 -4.554935,-4.01167 -1.817818,0 -10.198398,8.40872 -12.104741,12.14545 -1.123478,2.20221 -2.360946,6.34932 -2.749946,9.21584 l -0.707263,5.21178 5.639593,3.00586 c 10.707005,5.70678 23.059486,7.26636 35.301806,4.4571 z M 70.985727,174.9136 c 0,-3.8482 5.860278,-14.20988 10.079135,-17.82103 2.210127,-1.89183 5.737552,-4.29022 7.838655,-5.32975 l 3.82021,-1.89009 -3.568198,-2.72163 c -4.487706,-3.42292 -8.27122,-11.33611 -8.284069,-17.32605 -0.01401,-6.08308 4.095691,-14.14553 9.030451,-17.72029 11.611969,-8.41165 27.510099,-4.59624 33.848559,8.12343 4.57392,9.17862 2.55439,19.13301 -5.36496,26.44413 l -3.88884,3.59016 4.0967,1.80743 c 8.09894,3.57324 15.79886,13.51823 17.18681,22.19801 0.37105,2.32036 1.12752,3.92882 1.75445,3.73036 2.17357,-0.68798 10.33099,-12.53152 12.51615,-18.17185 3.32853,-8.59158 3.7975,-22.70977 1.05439,-31.74096 C 143.58991,103.34314 117.60368,88.779032 91.81739,94.857261 69.265601,100.17311 54.196416,119.11548 54.196416,142.1479 c 0,12.36882 3.100081,21.2454 10.83908,31.03598 4.142854,5.24108 5.950231,5.76652 5.950231,1.72972 z m 37.889683,-16.46662 c 2.94254,-2.31458 3.34906,-4.36846 1.04003,-5.25453 -2.27472,-0.87288 -11.555926,-0.70539 -13.038476,0.23538 -2.869876,1.82098 2.448044,6.93453 7.307326,7.02653 1.14893,0.0212 3.25991,-0.88158 4.69112,-2.00735 z m 3.71906,-12.35474 c 6.22458,-3.18419 10.55299,-12.10115 9.24878,-19.05327 -0.97741,-5.21004 -3.02233,-8.58368 -7.07801,-11.67711 -3.24362,-2.47402 -4.42811,-2.76694 -11.18847,-2.76694 -6.811646,0 -7.930805,0.28215 -11.294939,2.84814 -4.271312,3.25791 -7.426212,9.39035 -7.426212,14.43498 0,7.23985 6.362846,15.99422 12.624711,17.36981 1.451892,0.3191 3.08425,0.73814 3.62741,0.9316 1.67791,0.59753 8.75088,-0.68769 11.48673,-2.08721 z"
       id="path2108" />
  </g>
</svg>
