<svg width="260" height="260" viewBox="0 0 260 260" fill="none" xmlns="http://www.w3.org/2000/svg">
<path d="M120 2.40002C54.8879 2.40002 2.3999 55.608 2.3999 120C2.3999 184.392 55.6079 237.6 120 237.6C184.392 237.6 237.6 184.392 237.6 120C238.296 54.912 185.088 2.40002 120 2.40002ZM120 214.488C67.5119 214.488 25.5119 172.488 25.5119 120C25.5119 67.512 67.5119 25.512 120 25.512C172.488 25.512 214.488 67.512 214.488 120C214.488 171.792 172.488 214.488 120 214.488Z" fill="black"/>
<path d="M101.088 85.008H164.784C171.792 85.008 176.688 80.112 176.688 73.104C176.688 66.096 171.792 61.2 164.784 61.2H127.008V45.792C127.008 42.288 124.2 40.2 121.416 40.2C118.608 40.2 115.824 43.008 115.824 45.792V61.2H101.832C82.2238 61.2 66.1438 77.304 66.1438 96.888V99.696C66.1438 119.304 82.2478 135.384 101.832 135.384H142.44C148.032 135.384 154.344 140.28 154.344 147.288C154.344 152.88 149.448 159.192 142.44 159.192H78.6958C71.6878 159.192 66.7918 164.088 66.7918 171.096C66.7918 178.104 71.6878 183 78.6958 183H116.496V198.408C116.496 201.912 119.304 204 122.088 204C124.896 204 127.68 201.192 127.68 198.408V183H141.672C161.28 183 177.36 166.896 177.36 147.312C177.36 127.728 161.304 111.6 141.696 111.6H101.088C95.4958 111.6 89.1838 106.704 89.1838 99.696V96.888C89.2078 89.904 94.1038 85.008 101.088 85.008Z" fill="black"/>
</svg>
