<svg width="260" height="260" viewBox="0 0 260 260" fill="none" xmlns="http://www.w3.org/2000/svg">
    <g clip-path="url(#clip0_40_27)">
    <path d="M225.79 41.0529H116.316C100.018 41.0529 86.7715 52.0003 83.1722 67.0527H62.9477C42.4212 67.0527 24.6322 79.3684 17.7898 97.1582L1.36833 138.21C0 140.948 0 142.315 0 145.053V171.053C0 179.824 6.17162 187.61 14.2447 190.416C16.8996 206.769 30.693 218.947 47.8946 218.947C64.699 218.947 78.3422 207.356 81.4343 191.579H88.9467H164.88C167.973 207.357 181.616 218.947 198.42 218.947C215.224 218.947 228.867 207.356 231.96 191.579H239.472C250.419 191.579 259.998 182 259.998 171.053V75.2634C260 56.1053 244.947 41.0529 225.79 41.0529V41.0529ZM47.8946 205.263C36.9472 205.263 27.3681 195.684 27.3681 184.737C27.3681 173.789 36.9472 164.21 47.8946 164.21C58.8419 164.21 68.421 173.789 68.421 184.737C68.421 195.684 58.8419 205.263 47.8946 205.263ZM47.8946 150.526C32.924 150.526 20.5674 159.776 15.8325 172.941C15.3669 171.983 15.0524 170.929 15.0524 169.683V143.684L31.4739 102.631C36.9472 88.9467 49.2629 80.7359 62.9477 80.7359H82.1058V177.894H81.4351C78.3422 162.117 64.699 150.526 47.8946 150.526V150.526ZM198.421 205.263C187.473 205.263 177.894 195.684 177.894 184.737C177.894 173.789 187.473 164.21 198.421 164.21C209.368 164.21 218.947 173.789 218.947 184.737C218.947 195.684 209.368 205.263 198.421 205.263V205.263ZM246.316 171.053C246.316 175.158 243.579 177.895 239.474 177.895H231.961C228.868 162.117 215.225 150.527 198.421 150.527C181.618 150.527 167.974 162.118 164.882 177.895H95.7899V75.2634C95.7899 64.316 105.369 54.737 116.316 54.737H225.79C236.738 54.737 246.317 64.316 246.317 75.2634V171.053H246.316Z" fill="black"/>
    </g>
    <defs>
    <clipPath id="clip0_40_27">
    <rect width="260" height="260" fill="white"/>
    </clipPath>
    </defs>
    </svg>
    