<svg width="79" height="86" viewBox="0 0 79 86" fill="none" xmlns="http://www.w3.org/2000/svg" xmlns:xlink="http://www.w3.org/1999/xlink">
    <rect x="13.4795" y="30.3318" width="50.9613" height="51.0851" fill="url(#pattern0)"/>
    <path d="M35.2741 80.9287C25.6899 79.529 17.6399 72.5445 14.7807 63.1479C13.4188 58.672 13.4132 53.0948 14.7663 48.6479C17.4282 39.8998 24.3437 33.3839 33.321 31.1654C36.266 30.4376 42.2573 30.515 45.2164 31.3191C56.4476 34.3708 64.1372 44.231 64.1438 55.5892C64.1461 59.2826 63.8983 60.8898 62.84 64.05C59.0081 75.4926 47.269 82.6805 35.2741 80.9287ZM54.3955 65.6931C54.7442 65.4483 55.0275 64.9486 55.0275 64.5785C55.0275 63.8222 53.5277 61.8393 51.3629 59.7335C50.5631 58.9554 49.9097 58.1216 49.911 57.8805C49.9121 57.6394 50.7599 56.2967 51.7946 54.8966C54.8025 50.8266 55.6757 48.7727 54.5777 48.3504C53.9393 48.1048 47.8409 48.1434 47.456 48.3955C47.2801 48.5107 46.8381 49.3105 46.4737 50.1728C45.3084 52.9308 42.8264 56.3861 42.2619 56.0364C42.0575 55.9097 41.9444 54.5633 41.9416 52.2228C41.9393 50.233 41.8406 48.4526 41.7225 48.2664C41.3219 47.6348 39.9255 47.3221 37.5054 47.3221C34.0097 47.3221 32.2256 48.4302 34.1966 49.3772L34.9786 49.7529V52.8849C34.9786 55.4387 34.9021 56.0168 34.564 56.0168C33.9552 56.0168 32.2118 53.5675 30.8873 50.8513C30.0517 49.138 29.5491 48.4311 29.0834 48.3144C28.7283 48.2255 27.2221 48.1903 25.7362 48.2363C23.1969 48.3148 23.0292 48.3577 22.9453 48.9487C22.8253 49.7949 25.7662 55.701 27.8627 58.8238C29.8646 61.8058 32.1067 63.9559 34.2677 64.9658C35.6131 65.5947 36.2279 65.6977 38.6663 65.7031C41.8522 65.7101 41.4627 65.9982 42.2228 63.0724C42.4191 62.3168 42.7002 61.8608 42.9698 61.8608C43.2076 61.8608 44.1956 62.7046 45.1655 63.7359C47.1757 65.8734 47.6708 66.0636 51.3384 66.1077C53.1105 66.1291 53.9336 66.0174 54.3955 65.6931Z" fill="#FFFFFD"/>
    <defs>
    <pattern id="pattern0" patternContentUnits="objectBoundingBox" width="1" height="1">
    <use xlink:href="#image0_122_251" transform="scale(0.00195312)"/>
    </pattern>
    </defs>
</svg>